<svg xmlns="http://www.w3.org/2000/svg" xmlns:xlink="http://www.w3.org/1999/xlink" width="199.173" height="155.325" viewBox="0 0 199.173 155.325">
  <defs>
    <filter id="Icon_material-local-dining" x="0" y="28.351" width="111.819" height="109.508" filterUnits="userSpaceOnUse">
      <feOffset dy="3" input="SourceAlpha"/>
      <feGaussianBlur stdDeviation="11" result="blur"/>
      <feFlood flood-color="#550909" flood-opacity="0.667"/>
      <feComposite operator="in" in2="blur"/>
      <feComposite in="SourceGraphic"/>
    </filter>
    <filter id="Path_18" x="41.079" y="0" width="158.094" height="155.325" filterUnits="userSpaceOnUse">
      <feOffset dy="3" input="SourceAlpha"/>
      <feGaussianBlur stdDeviation="3" result="blur-2"/>
      <feFlood flood-color="#0b0101" flood-opacity="0.447"/>
      <feComposite operator="in" in2="blur-2"/>
      <feComposite in="SourceGraphic"/>
    </filter>
  </defs>
  <g id="Group_12" data-name="Group 12" transform="translate(-2534.181 339.422)">
    <g transform="matrix(1, 0, 0, 1, 2534.18, -339.42)" filter="url(#Icon_material-local-dining)">
      <path id="Icon_material-local-dining-2" data-name="Icon material-local-dining" d="M16.954,29.158l6.781-6.781L6.914,5.579a9.6,9.6,0,0,0,0,13.563ZM33.2,24.821c3.666,1.7,8.818.5,12.628-3.307,4.577-4.577,5.463-11.143,1.941-14.665C44.271,3.35,37.705,4.213,33.1,8.79,29.295,12.6,28.1,17.752,29.8,21.418L6.41,44.805l3.379,3.379L26.3,31.722,42.786,48.208l3.379-3.379L29.678,28.343Z" transform="translate(28.89 53.65)" fill="#fff"/>
    </g>
    <g transform="matrix(1, 0, 0, 1, 2534.18, -339.42)" filter="url(#Path_18)" style="mix-blend-mode: overlay;isolation: isolate">
      <path id="Path_18-2" data-name="Path 18" d="M101.34,34.841q-.731,0-1.505-.043a12.711,12.711,0,0,1-1.5-.172l.516-2.752h1.462a6.511,6.511,0,0,0,3.805-1.118,7.161,7.161,0,0,0,2.451-2.924A8.979,8.979,0,0,0,107.4,24a6.441,6.441,0,0,0-1.14-4.02,6.413,6.413,0,0,0-3.01-2.15,12.024,12.024,0,0,0-4.063-.667,12.97,12.97,0,0,0-3.676.538A11.352,11.352,0,0,0,92.182,19.3a8.328,8.328,0,0,0-2.43,2.623,6.857,6.857,0,0,0-.924,3.548,11.408,11.408,0,0,0,.236,2.365,12.1,12.1,0,0,0,.925,2.58,3.878,3.878,0,0,1-1.548,1.011,4.82,4.82,0,0,1-1.591.322,5.8,5.8,0,0,1-3.247-.86,5.5,5.5,0,0,1-1.978-2.236,6.716,6.716,0,0,1-.667-2.967,8.142,8.142,0,0,1,1.57-4.966A12.268,12.268,0,0,1,86.72,17.19a22.783,22.783,0,0,1,5.848-2.107,30.529,30.529,0,0,1,6.579-.709,34.72,34.72,0,0,1,6.385.559,18.81,18.81,0,0,1,5.289,1.763,10.017,10.017,0,0,1,3.612,3.053,7.384,7.384,0,0,1,1.312,4.386,8.509,8.509,0,0,1-1.2,4.515A10.793,10.793,0,0,1,111.295,32a16.074,16.074,0,0,1-4.6,2.107A19.393,19.393,0,0,1,101.34,34.841Zm-9.417,10.1a6.981,6.981,0,0,1-2.946-.6,2.152,2.152,0,0,1-1.44-1.634,2.535,2.535,0,0,0,1.054-.8,3.9,3.9,0,0,0,.58-1.441q.215-.946.516-2.451L92.1,25.811a14.531,14.531,0,0,1,1.161-3.526,5,5,0,0,1,2.107-2.215,7.834,7.834,0,0,1,3.741-.752,6.981,6.981,0,0,1,2.946.6,2.152,2.152,0,0,1,1.44,1.634,2.669,2.669,0,0,0-1.419,1.376,13.925,13.925,0,0,0-.731,2.709L98.932,37.851a16.031,16.031,0,0,1-1.182,3.956,5.171,5.171,0,0,1-2.107,2.365A7.523,7.523,0,0,1,91.924,44.946Zm28.595-.086a5.5,5.5,0,0,1-3.5-1.1,3.975,3.975,0,0,1-1.4-3.333,19.179,19.179,0,0,1,.215-2.537q.215-1.548.58-3.4t.774-3.763q.408-1.914.817-3.677t.709-3.118q.3-1.354.387-2.085.473-2.451.688-4.085A21.918,21.918,0,0,0,120,14.975a10.95,10.95,0,0,0-.064-1.247,5.758,5.758,0,0,0-.193-.989,9.512,9.512,0,0,1,2.215-.839,10.016,10.016,0,0,1,2.472-.322,5.27,5.27,0,0,1,2.838.774,3.071,3.071,0,0,1,1.247,2.838,11.667,11.667,0,0,1-.107,1.376q-.108.86-.279,2.042t-.43,2.559q-.258,1.376-.6,2.924-.86,4.171-1.419,6.837t-.882,4.278q-.323,1.613-.473,2.43T124.13,38.8a4.932,4.932,0,0,0-.043.6,2.6,2.6,0,0,0,.473,1.5,1.945,1.945,0,0,0,1.548.774,3.686,3.686,0,0,1-1.226,1.785,5.912,5.912,0,0,1-2.021,1.053A8.065,8.065,0,0,1,120.518,44.86Zm15.136,0a6.991,6.991,0,0,1-3.978-1.054,6.2,6.2,0,0,1-2.322-2.945,12.072,12.072,0,0,1-.752-4.472,17.341,17.341,0,0,1,1.01-6.02,15.176,15.176,0,0,1,2.816-4.816,12.87,12.87,0,0,1,4.214-3.2,11.911,11.911,0,0,1,5.16-1.139,14.051,14.051,0,0,1,4.6.817l6.751-.817-3.1,16.383q-.043.344-.129.86a5.789,5.789,0,0,0-.086.946,2.6,2.6,0,0,0,.473,1.5,1.945,1.945,0,0,0,1.548.774,3.686,3.686,0,0,1-1.226,1.785,5.912,5.912,0,0,1-2.021,1.053,7.645,7.645,0,0,1-2.214.344,5.782,5.782,0,0,1-2.623-.6,3.318,3.318,0,0,1-1.677-1.849,8.28,8.28,0,0,1-2.73,1.785A9.676,9.676,0,0,1,135.655,44.86Zm2.709-2.752a2.362,2.362,0,0,0,1.871-.882A6.215,6.215,0,0,0,141.4,39.1a14.911,14.911,0,0,0,.581-2.365l2.15-12.169a4.508,4.508,0,0,0-1.139-.581,3.364,3.364,0,0,0-1.053-.193,2.707,2.707,0,0,0-2.107,1.053A8.812,8.812,0,0,0,138.3,27.66a24.179,24.179,0,0,0-.989,3.806,40.085,40.085,0,0,0-.516,4.021q-.15,1.978-.15,3.483a7.417,7.417,0,0,0,.3,2.128A1.332,1.332,0,0,0,138.363,42.108Zm34.271,2.752a5.573,5.573,0,0,1-3.548-1.1,3.975,3.975,0,0,1-1.4-3.333,12.964,12.964,0,0,1,.258-2.322q.258-1.376.645-2.946t.731-3.139q.344-1.57.6-2.989a13.821,13.821,0,0,0,.258-2.408,3.644,3.644,0,0,0-.279-1.462,1.189,1.189,0,0,0-1.225-.645,2.28,2.28,0,0,0-1.914,1.032,8.375,8.375,0,0,0-1.2,2.516q-.451,1.484-.753,2.86L162.271,44l-8.6.86,4.472-22.79,7.009-.86-.688,4.214a6.942,6.942,0,0,1,3.268-3.268,11.021,11.021,0,0,1,4.644-.946,7.7,7.7,0,0,1,4.493,1.161,4.393,4.393,0,0,1,1.656,3.87,13.462,13.462,0,0,1-.258,2.451q-.258,1.376-.6,2.86t-.688,2.924q-.344,1.44-.581,2.666a11.291,11.291,0,0,0-.236,2.086,2.863,2.863,0,0,0,.451,1.677,2.1,2.1,0,0,0,1.57.774,3.879,3.879,0,0,1-2.15,2.408A7.846,7.846,0,0,1,172.635,44.86ZM130.989,104.6a4.375,4.375,0,0,1-2.967-.967,3.522,3.522,0,0,1-1.118-2.816,4.964,4.964,0,0,1,.6-2.43,8.227,8.227,0,0,1,1.612-2.042,15.475,15.475,0,0,1,2.215-1.72l-3.569.172q-.086-3.526-.193-6.214t-.28-4.966q-.172-2.279-.43-4.386a11.479,11.479,0,0,0-.623-2.967A3.068,3.068,0,0,0,125.1,74.8a6.012,6.012,0,0,1,2.322-1.269,9.432,9.432,0,0,1,2.451-.323,5.763,5.763,0,0,1,3.1.688,3.833,3.833,0,0,1,1.548,2,12.29,12.29,0,0,1,.6,3.333q.043.516.043,1.591t.021,2.257q.021,1.183.021,2l-.043,5.934a25.306,25.306,0,0,0,2.6-4.171,26.671,26.671,0,0,0,1.827-4.73,17.916,17.916,0,0,0,.688-4.859,11.514,11.514,0,0,0-.064-1.182,8.193,8.193,0,0,0-.237-1.269,5.12,5.12,0,0,1,1.634-1.14,5.435,5.435,0,0,1,2.279-.451,5.1,5.1,0,0,1,1.87.344,3.032,3.032,0,0,1,1.419,1.118,3.726,3.726,0,0,1,.538,2.15,8.938,8.938,0,0,1-.667,3.16,21.294,21.294,0,0,1-1.763,3.526,39.365,39.365,0,0,1-2.43,3.5q-1.333,1.72-2.644,3.182t-2.344,2.537a22.08,22.08,0,0,0-2.473,2.709,5.323,5.323,0,0,0-1.01,3.311,4.326,4.326,0,0,0,.581,2.15,5.559,5.559,0,0,0,1.483,1.72,6.521,6.521,0,0,1-2.515,1.5A9.384,9.384,0,0,1,130.989,104.6Zm25.37-7.74a12.543,12.543,0,0,1-3.848-.559,7.93,7.93,0,0,1-2.967-1.677,7.225,7.225,0,0,1-1.871-2.795,10.869,10.869,0,0,1-.645-3.913,17.937,17.937,0,0,1,.924-5.869,13.73,13.73,0,0,1,2.666-4.666,11.907,11.907,0,0,1,4.279-3.074,14.394,14.394,0,0,1,5.762-1.1,12.489,12.489,0,0,1,3.87.559,7.7,7.7,0,0,1,2.9,1.656,7.549,7.549,0,0,1,1.849,2.73,10.217,10.217,0,0,1,.666,3.87,17.937,17.937,0,0,1-.924,5.869,14.012,14.012,0,0,1-2.687,4.708,12.147,12.147,0,0,1-4.278,3.139A13.889,13.889,0,0,1,156.359,96.86ZM157,94.28a2.321,2.321,0,0,0,1.849-1.075,9.379,9.379,0,0,0,1.376-2.817,31.131,31.131,0,0,0,.946-3.827,41.582,41.582,0,0,0,.559-4.171q.172-2.086.172-3.763a4.464,4.464,0,0,0-.408-2.042,1.556,1.556,0,0,0-1.527-.8,2.308,2.308,0,0,0-1.87,1.053,10.193,10.193,0,0,0-1.4,2.773,22.721,22.721,0,0,0-.946,3.806q-.344,2.085-.516,4.171t-.172,3.849a4.464,4.464,0,0,0,.408,2.042A1.556,1.556,0,0,0,157,94.28Zm21.2,2.58a8.793,8.793,0,0,1-3.332-.6,4.927,4.927,0,0,1-2.322-1.871,5.949,5.949,0,0,1-.839-3.332,22.879,22.879,0,0,1,.28-2.989q.279-1.956.882-5.354t1.5-8.643l8.643-.86q-.9,4.644-1.505,7.848t-1.01,5.289q-.408,2.086-.581,3.376a16.8,16.8,0,0,0-.172,2.15,5.258,5.258,0,0,0,.107,1.075,1.71,1.71,0,0,0,.409.839,1.3,1.3,0,0,0,.989.323,2.431,2.431,0,0,0,1.913-.86,6.222,6.222,0,0,0,1.182-2.129A18.148,18.148,0,0,0,185,88.733l2.58-14.663,8.6-.86-3.1,16.383q-.043.344-.129.86a5.791,5.791,0,0,0-.086.946,2.6,2.6,0,0,0,.473,1.5,1.945,1.945,0,0,0,1.548.774,3.633,3.633,0,0,1-1.247,1.785,6.185,6.185,0,0,1-2.021,1.053,7.433,7.433,0,0,1-2.193.344,6.053,6.053,0,0,1-2.666-.6,2.974,2.974,0,0,1-1.634-1.849,7.361,7.361,0,0,1-3.01,1.828A12.164,12.164,0,0,1,178.2,96.86Zm18.49,0,4.386-22.79,7.052-.86-.688,4.214a7.476,7.476,0,0,1,2.645-3.139,7.144,7.144,0,0,1,3.977-1.075A5.491,5.491,0,0,1,218,74.5a4.865,4.865,0,0,1,1.354,3.7,6.321,6.321,0,0,1-1.634,4.472,5.436,5.436,0,0,1-4.171,1.763,5.941,5.941,0,0,1-1.484-.193,2.238,2.238,0,0,1-1.139-.624,8.428,8.428,0,0,0,1.247-2.494,8.936,8.936,0,0,0,.516-2.8,2.9,2.9,0,0,0-.258-1.268,1.03,1.03,0,0,0-1.032-.538,1.937,1.937,0,0,0-1.2.43,4.077,4.077,0,0,0-1.032,1.29,12.246,12.246,0,0,0-.882,2.129,19.065,19.065,0,0,0-.667,2.989L205.551,96ZM83.861,148.9h-.839q-.408,0-.882-.043-.086-3.526-.215-6.751t-.344-6q-.215-2.773-.559-4.881a17.862,17.862,0,0,0-.645-2.967A2.664,2.664,0,0,0,79.26,126.8a6.573,6.573,0,0,1,2.322-1.247,9.034,9.034,0,0,1,2.494-.344,6.047,6.047,0,0,1,3.225.71,3.865,3.865,0,0,1,1.591,2.064,11.484,11.484,0,0,1,.559,3.246q.043.645.064,1.849t.043,2.494q.022,1.29.021,2.193v2.988q0,1.7-.043,3.891a12.129,12.129,0,0,0,2.15-3.139,23.583,23.583,0,0,0,1.505-4,31.447,31.447,0,0,0,1.161-8.213q0-.6-.043-1.225a5.119,5.119,0,0,0-.258-1.269,4.571,4.571,0,0,1,1.634-1.161,5.907,5.907,0,0,1,2.365-.43,4.163,4.163,0,0,1,2.666.731,3.884,3.884,0,0,1,1.269,2.064,16.518,16.518,0,0,1,.494,3.182q0,.473.043,1.01t.064,1.29q.022.752.022,1.849v5.547q0,1.656-.043,3.762a12.546,12.546,0,0,0,2.172-3.139,21.376,21.376,0,0,0,1.5-4,32.773,32.773,0,0,0,.86-4.278,30.37,30.37,0,0,0,.279-3.935q0-.6-.043-1.225a5.119,5.119,0,0,0-.258-1.269,5.12,5.12,0,0,1,1.634-1.14,5.435,5.435,0,0,1,2.279-.451,4.886,4.886,0,0,1,1.87.344,3.024,3.024,0,0,1,1.376,1.139,3.745,3.745,0,0,1,.538,2.129,10.052,10.052,0,0,1-.516,2.881,29.791,29.791,0,0,1-1.354,3.526q-.838,1.849-1.827,3.612a24.808,24.808,0,0,1-2.064,3.139,30.4,30.4,0,0,1-3.462,3.892,11.169,11.169,0,0,1-3.548,2.257,12.124,12.124,0,0,1-4.386.731H97a5.373,5.373,0,0,1-.667-.043v-4.042q0-2.193-.086-4.6a20.829,20.829,0,0,1-3.569,5.418,9.978,9.978,0,0,1-4,2.6A15.317,15.317,0,0,1,83.861,148.9Zm40.635-.043a11.237,11.237,0,0,1-4.73-.946,7.2,7.2,0,0,1-3.246-2.924,9.869,9.869,0,0,1-1.182-5.117,18.113,18.113,0,0,1,.817-5.418,13.754,13.754,0,0,1,2.537-4.708,12.214,12.214,0,0,1,4.365-3.311,14.876,14.876,0,0,1,6.3-1.226,14.07,14.07,0,0,1,3.548.43,5.323,5.323,0,0,1,2.709,1.613,4.91,4.91,0,0,1,1.054,3.376,5.873,5.873,0,0,1-1.183,3.633,7.753,7.753,0,0,1-3.612,2.472,21.386,21.386,0,0,1-6.127,1.118q-.516.043-1.075.043H123.55q-.043.473-.086.967t-.043.839a4.264,4.264,0,0,0,.8,2.773,3.359,3.359,0,0,0,2.731.967,8.606,8.606,0,0,0,3.332-.71,5.26,5.26,0,0,0,2.516-2,1.932,1.932,0,0,1,.839.86,2.864,2.864,0,0,1,.236,1.2,4.487,4.487,0,0,1-1.333,3.225,8.618,8.618,0,0,1-3.462,2.107A14.006,14.006,0,0,1,124.5,148.86Zm-.688-12.814a6.751,6.751,0,0,0,2.666-.495,5.939,5.939,0,0,0,1.956-1.311,5.324,5.324,0,0,0,1.2-1.978,7.6,7.6,0,0,0,.408-2.537,4.153,4.153,0,0,0-.365-1.677,1.24,1.24,0,0,0-1.226-.645,2.4,2.4,0,0,0-1.419.494,4.854,4.854,0,0,0-1.29,1.526,12.508,12.508,0,0,0-1.1,2.688A29.08,29.08,0,0,0,123.808,136.046ZM146.34,148.86a11.237,11.237,0,0,1-4.73-.946,7.2,7.2,0,0,1-3.247-2.924,9.869,9.869,0,0,1-1.182-5.117,18.113,18.113,0,0,1,.817-5.418,13.754,13.754,0,0,1,2.537-4.708,12.214,12.214,0,0,1,4.364-3.311,14.876,14.876,0,0,1,6.3-1.226,14.07,14.07,0,0,1,3.548.43,5.323,5.323,0,0,1,2.709,1.613,4.91,4.91,0,0,1,1.054,3.376,5.873,5.873,0,0,1-1.183,3.633,7.753,7.753,0,0,1-3.612,2.472,21.386,21.386,0,0,1-6.128,1.118q-.516.043-1.075.043h-1.118q-.043.473-.086.967t-.043.839a4.264,4.264,0,0,0,.8,2.773,3.359,3.359,0,0,0,2.73.967,8.606,8.606,0,0,0,3.332-.71,5.26,5.26,0,0,0,2.516-2,1.932,1.932,0,0,1,.839.86,2.864,2.864,0,0,1,.236,1.2,4.487,4.487,0,0,1-1.333,3.225,8.618,8.618,0,0,1-3.462,2.107A14.006,14.006,0,0,1,146.34,148.86Zm-.688-12.814a6.751,6.751,0,0,0,2.666-.495,5.94,5.94,0,0,0,1.956-1.311,5.324,5.324,0,0,0,1.2-1.978,7.6,7.6,0,0,0,.408-2.537,4.153,4.153,0,0,0-.365-1.677,1.24,1.24,0,0,0-1.226-.645,2.4,2.4,0,0,0-1.419.494,4.854,4.854,0,0,0-1.29,1.526,12.508,12.508,0,0,0-1.1,2.688A29.081,29.081,0,0,0,145.652,136.046Zm12.126,12.814,3.913-19.952,7.654-.731a6.88,6.88,0,0,1,3.311-2.322,12.568,12.568,0,0,1,3.913-.645,6.931,6.931,0,0,1,4.536,1.333,5,5,0,0,1,1.613,4.085,7.22,7.22,0,0,1-.817,3.461,7.083,7.083,0,0,1-2.3,2.537,9.783,9.783,0,0,1-3.59,1.441l-6.751-.172a6.717,6.717,0,0,0,2.559-1.4,7.536,7.536,0,0,0,1.892-2.473,7,7,0,0,0,.71-3.1q0-2.408-1.634-2.408a2.31,2.31,0,0,0-1.935,1.075,9.105,9.105,0,0,0-1.247,2.537,23.8,23.8,0,0,0-.731,2.795L166.378,148Zm18.318,0a5.223,5.223,0,0,1-2.838-.731,6.317,6.317,0,0,1-1.935-1.913,9.424,9.424,0,0,1-1.182-2.645,23.419,23.419,0,0,1-.624-2.945,25.213,25.213,0,0,1-.258-2.73l7.267-.645,1.978,5.117a7.236,7.236,0,0,0,1.14,2.042,2.434,2.434,0,0,0,1.742.967,4.1,4.1,0,0,1-2,2.623A6.592,6.592,0,0,1,176.1,148.86Zm-6.751-19.694-7.654-.258q.387-1.763.71-3.526t.516-3.419q.193-1.656.236-3.2a8.27,8.27,0,0,0,.021-1.032q-.021-.516-.021-.989a8.043,8.043,0,0,1,2.279-.9,10.126,10.126,0,0,1,2.193-.258,4.6,4.6,0,0,1,2.9.882,3.4,3.4,0,0,1,1.1,2.945,9.889,9.889,0,0,1-.129,1.483q-.129.838-.323,1.806t-.473,2q-.28,1.032-.624,2.15T169.345,129.166Z" transform="translate(-29.18 -5.58)" fill="#fff" opacity="0.996"/>
    </g>
  </g>
</svg>
