<svg xmlns="http://www.w3.org/2000/svg" width="357" height="338" viewBox="0 0 357 338">
  <g id="Group_25" data-name="Group 25" transform="translate(-4109 -149)">
    <path id="Polygon_1" data-name="Polygon 1" d="M197.158,0l14.56,20.224L233.66,7.386l9.825,22.664,24.266-8.214,4.66,24.113,25.529-3.232-.708,24.509,25.677,1.892L316.865,92.95l24.7,6.933L330.45,122,353.1,133.669l-15.7,19.432L357,169l-19.605,15.9,15.7,19.432L330.45,216l11.118,22.116-24.7,6.933,6.045,23.833-25.677,1.892.708,24.508-25.529-3.232-4.66,24.113-24.266-8.214-9.825,22.664-21.941-12.838L197.158,338,178.5,321.1,159.842,338l-14.56-20.224L123.34,330.614l-9.825-22.664L89.25,316.164l-4.66-24.113L59.06,295.283l.708-24.508-25.677-1.892,6.045-23.833-24.7-6.933L26.55,216,3.9,204.331l15.7-19.432L0,169l19.605-15.9L3.9,133.67,26.55,122,15.432,99.883l24.7-6.933L34.09,69.117l25.677-1.892L59.06,42.717l25.529,3.232,4.66-24.113,24.266,8.214L123.34,7.386l21.942,12.838L159.841,0,178.5,16.9Z" transform="translate(4109 149)" fill="#fff"/>
    <path id="Icon_material-local-dining" data-name="Icon material-local-dining" d="M32.028,57.861l14.74-14.74L10.2,6.61a20.874,20.874,0,0,0,0,29.48Zm35.314-9.427c7.969,3.7,19.167,1.094,27.449-7.188,9.948-9.948,11.875-24.219,4.219-31.876-7.6-7.6-21.876-5.729-31.876,4.219-8.282,8.282-10.886,19.48-7.188,27.449L9.11,91.873l7.344,7.344L52.341,63.434,88.175,99.269l7.344-7.344L59.685,56.09Z" transform="translate(4239.185 228.698)" fill="#363535"/>
    <path id="Path_20" data-name="Path 20" d="M23.537,36.629a5.818,5.818,0,0,1-3.431-1,5.967,5.967,0,0,1-2.126-2.763,10.8,10.8,0,0,1-.7-4.008,12.234,12.234,0,0,1,1.488-5.5,11.354,11.354,0,0,1,4.4-4.464,14.732,14.732,0,0,1,7.591-1.761,39.6,39.6,0,0,1,6.377.486q2.976.486,5.769,1a30.688,30.688,0,0,0,5.587.516,20.106,20.106,0,0,0,4.342-.425,7.433,7.433,0,0,0,3.553-2,3.721,3.721,0,0,1,1.063,1.518,5.433,5.433,0,0,1,.395,2.065,6.169,6.169,0,0,1-.668,2.794,5.747,5.747,0,0,1-2.065,2.247,6.692,6.692,0,0,1-3.7.911,14.118,14.118,0,0,1-4.372-.668,29.168,29.168,0,0,1-4.069-1.67q-2-1-4.251-2.034l-.061-.3a14.88,14.88,0,0,0-5.83-1.093,7.069,7.069,0,0,0-5.435,2.186,9.056,9.056,0,0,0-2.1,6.255,15.222,15.222,0,0,0,.364,3.37,14.667,14.667,0,0,0,1.215,3.31,4.714,4.714,0,0,1-1.67.789A6.779,6.779,0,0,1,23.537,36.629ZM30.825,61.1a6.986,6.986,0,0,1-2.7-.516,2.271,2.271,0,0,1-1.488-1.427,4.413,4.413,0,0,0,1.306-1.215,6.8,6.8,0,0,0,.881-1.883q.364-1.154.729-2.915L33.983,30.07A13.509,13.509,0,0,1,37.262,23q2.368-2.4,7.105-2.642l-6.5,33.7a15.261,15.261,0,0,1-1.306,4.008,5.214,5.214,0,0,1-2.217,2.308A7.573,7.573,0,0,1,30.825,61.1Zm25.446-.061a8.435,8.435,0,0,1-5.162-1.488,8.572,8.572,0,0,1-2.945-4.1,17.684,17.684,0,0,1-.941-6.012,27.5,27.5,0,0,1,1.275-8.5,22.458,22.458,0,0,1,3.613-6.953,17,17,0,0,1,5.5-4.676,14.331,14.331,0,0,1,6.8-1.67,18.653,18.653,0,0,1,6.377,1.215l6.984-.85L73.031,52.844q-.061.486-.182,1.215a8.176,8.176,0,0,0-.121,1.336A2.579,2.579,0,0,0,73.214,57a2.182,2.182,0,0,0,1.579.759,3.623,3.623,0,0,1-1.154,1.822,5.807,5.807,0,0,1-1.913,1.093,6.787,6.787,0,0,1-2.217.364,5.211,5.211,0,0,1-3.036-.881,3.8,3.8,0,0,1-1.579-2.581,12.975,12.975,0,0,1-3.765,2.49A11.832,11.832,0,0,1,56.27,61.042Zm2.976-3.7a4.505,4.505,0,0,0,3.431-1.458A10.111,10.111,0,0,0,64.8,52.267a27.839,27.839,0,0,0,1.123-4.1L68.72,32.985a8.247,8.247,0,0,0-2.277-1.275,6.581,6.581,0,0,0-2.217-.425,4.948,4.948,0,0,0-3.249,1.184,10.312,10.312,0,0,0-2.49,3.219,22.668,22.668,0,0,0-1.761,4.646,38.658,38.658,0,0,0-1.032,5.4,46.025,46.025,0,0,0-.334,5.466,10.788,10.788,0,0,0,.789,4.312A3.045,3.045,0,0,0,59.246,57.338Zm19.676,3.34,5.344-27.389,7.045.061a9.837,9.837,0,0,1,4.433-4.372,13.1,13.1,0,0,1,5.709-1.336q3.765,0,5.648,1.913a7.249,7.249,0,0,1,1.883,5.314,9.57,9.57,0,0,1-1.518,5.435,12.038,12.038,0,0,1-3.917,3.7,21.854,21.854,0,0,1-5.132,2.217l-6.862-.911a18.123,18.123,0,0,0,4.464-1.852,11.547,11.547,0,0,0,3.553-3.128,7.047,7.047,0,0,0,1.4-4.312q0-3.7-3.34-3.7a4.677,4.677,0,0,0-3.644,1.549,11.308,11.308,0,0,0-2.217,3.887,35.328,35.328,0,0,0-1.306,4.767L87.12,59.828Zm22.47.364a5.77,5.77,0,0,1-2.915-.729,7.39,7.39,0,0,1-2.277-2.1,14.683,14.683,0,0,1-1.761-3.279,45.985,45.985,0,0,1-1.458-4.372q-.7-2.46-1.427-5.253l7.47-.243,3.036,7.895a10.871,10.871,0,0,0,1.7,2.854,3.775,3.775,0,0,0,2.733,1.457,4.164,4.164,0,0,1-1.67,2.763A5.648,5.648,0,0,1,101.392,61.042ZM91.25,34.261l-7.045-.607q.486-2.49,1-5.435t.881-5.739a38.951,38.951,0,0,0,.364-4.98q0-.668-.03-1.275t-.091-1.154a5.988,5.988,0,0,1,1.883-.789,8.988,8.988,0,0,1,2.065-.243,5.4,5.4,0,0,1,3.249,1.032,4,4,0,0,1,1.366,3.583,14.614,14.614,0,0,1-.243,2.186q-.243,1.457-.638,3.279t-.881,3.7q-.486,1.883-.972,3.553T91.25,34.261ZM122.1,61.042a13.558,13.558,0,0,1-6.134-1.306,9.094,9.094,0,0,1-4.038-4.008,14.7,14.7,0,0,1-1.427-6.893,27.418,27.418,0,0,1,1.093-7.622,21.636,21.636,0,0,1,3.31-6.832A16.195,16.195,0,0,1,128.6,27.641a14.568,14.568,0,0,1,4.433.638A6.229,6.229,0,0,1,136.22,30.5a7.035,7.035,0,0,1,1.184,4.312,8.626,8.626,0,0,1-1.974,5.709A12.3,12.3,0,0,1,130,44.129a24.432,24.432,0,0,1-7.956,1.306,14.207,14.207,0,0,1-1.64.03q-.911-.03-1.579-.091-.061.911-.121,1.792t-.061,1.549a8.6,8.6,0,0,0,1.184,4.889q1.184,1.731,4.281,1.731a9.426,9.426,0,0,0,4.707-1.215,8.34,8.34,0,0,0,3.31-3.34,1.654,1.654,0,0,1,1.154,1,4.136,4.136,0,0,1,.3,1.549,5.878,5.878,0,0,1-1.427,3.765,10.128,10.128,0,0,1-3.978,2.854A15.354,15.354,0,0,1,122.1,61.042ZM119.246,42.52A15.546,15.546,0,0,0,123.254,42a12.62,12.62,0,0,0,3.492-1.488,7.323,7.323,0,0,0,2.46-2.52,6.875,6.875,0,0,0,.911-3.553,4.387,4.387,0,0,0-.759-2.551,2.544,2.544,0,0,0-2.156-.911,4.721,4.721,0,0,0-2.885.972,9.132,9.132,0,0,0-2.308,2.611,18.364,18.364,0,0,0-1.7,3.7A27.2,27.2,0,0,0,119.246,42.52Zm39.292,18.462a4.309,4.309,0,0,1-3.31-1.336,5.223,5.223,0,0,1-1.245-3.7,9.462,9.462,0,0,1,.455-2.672,20.514,20.514,0,0,1,1.64-3.7,59.972,59.972,0,0,1,3.37-5.344l11.9-17.611-13.421-.061a12.554,12.554,0,0,1-3.279-.395,4.292,4.292,0,0,1-2.277-1.4,4.14,4.14,0,0,1-.82-2.7,4.4,4.4,0,0,1,.3-1.7,7.046,7.046,0,0,1,.729-1.336,3.984,3.984,0,0,0,2,.638q1.215.091,2.733.091H179.49l.3,4.069q-1.883,2.368-3.553,4.889t-3.674,5.5q-3.219,5.1-5.132,8.745a45.85,45.85,0,0,0-2.824,6.316,24.754,24.754,0,0,0-1.184,4.858,35.708,35.708,0,0,0-.273,4.433q0,.3.03.668t.091.789a15.22,15.22,0,0,1-2.4.7A11.54,11.54,0,0,1,158.538,60.982Z" transform="translate(4190.659 340.005)" fill="#363535"/>
  </g>
</svg>
